<svg xmlns:dc="http://purl.org/dc/elements/1.1/" xmlns:cc="http://creativecommons.org/ns#" xmlns:rdf="http://www.w3.org/1999/02/22-rdf-syntax-ns#" xmlns:svg="http://www.w3.org/2000/svg" xmlns="http://www.w3.org/2000/svg" xmlns:sodipodi="http://sodipodi.sourceforge.net/DTD/sodipodi-0.dtd" xmlns:inkscape="http://www.inkscape.org/namespaces/inkscape" version="1.1" x="0px" y="0px" viewBox="0 0 100 125"><g transform="translate(0,-952.36218)"><path style="text-indent:0;text-transform:none;direction:ltr;block-progression:tb;baseline-shift:baseline;color:#000000;enable-background:accumulate;" d="m 10.000208,967.36215 c -3.8435004,0 -7.0002004,3.1566 -7.0002004,7 l 0,46.00005 c 0,3.8434 3.1567,7 7.0002004,7 l 51.2203,0 -3.9064,6.9687 c -0.8495,1.5035 0.156,2.9228 1.5001,3.0313 12.0467,10e-5 24.1287,0 36.1886,0 1.384,-0.01 2.5841,-1.7291 1.6875,-3.0313 l -11.6878,-20.8125 0,-39.15625 c 0,-3.8434 -3.1567,-7 -7.0003,-7 z m 0,4 68.002,0 c 1.6967,0 3.0001,1.30341 3.0001,3 l 0,32.03125 -2.2812,-4.0625 c -0.9993,-1.3978 -2.8025,-1.1658 -3.5627,0.2187 l -8.5627,-6.7812 c -0.7218,-0.56082 -1.8384,-0.53325 -2.5314,0.0625 l -13.8754,11.75 -17.7192,-19.5625 c -0.966,-0.83238 -1.8839,-0.8452 -2.7814,-0.15625 l -22.6882004,20.06255 0,-33.56255 c 0,-1.69659 1.3035,-3 3.0001004,-3 z m 42.0013,8 c -3.8424,0 -7.0002,3.15769 -7.0002,7 0,3.84231 3.1578,7 7.0002,7 3.8424,0 7.0002,-3.15769 7.0002,-7 0,-3.84231 -3.1578,-7 -7.0002,-7 z m 0,4 c 1.6805,0 3.0001,1.31945 3.0001,3 0,1.68055 -1.3196,3 -3.0001,3 -1.6806,0 -3.0001,-1.31945 -3.0001,-3 0,-1.68055 1.3195,-3 3.0001,-3 z m -21.1569,8.8125 17.688,19.53125 c 0.6939,0.7379 1.9774,0.8108 2.75,0.1563 l 14.1255,-11.93755 7.7502,6.21875 -9.6877,17.2188 -53.4704,0 c -1.6966004,0 -3.0001004,-1.3034 -3.0001004,-3 l 0,-7.0938 z m 46.1576,15.25005 14.563,25.9375 -29.1259,0 z m 0,3.9375 c -1.1047,0 -2,0.8956 -2,2 l 0,11 c 0,1.1044 0.8953,2 2,2 1.1046,0 2.0001,-0.8956 2.0001,-2 l 0,-11 c 0,-1.1044 -0.8955,-2 -2.0001,-2 z m 0,16 c -1.3808,0 -2.5001,1.1196 -2.5001,2.5 0,1.3805 1.1193,2.5 2.5001,2.5 1.3809,0 2.5001,-1.1195 2.5001,-2.5 0,-1.3804 -1.1192,-2.5 -2.5001,-2.5 z" fill="#000000" fill-opacity="1" stroke="none" marker="none" visibility="visible" display="inline" overflow="visible"/></g><text x="0" y="115" fill="#000000" font-size="5px" font-weight="bold" font-family="'Helvetica Neue', Helvetica, Arial-Unicode, Arial, Sans-serif">Created by iconsphere</text><text x="0" y="120" fill="#000000" font-size="5px" font-weight="bold" font-family="'Helvetica Neue', Helvetica, Arial-Unicode, Arial, Sans-serif">from the Noun Project</text></svg>